<?xml version="1.0" standalone="no"?>
<!DOCTYPE svg PUBLIC "-//W3C//DTD SVG 20010904//EN"
 "http://www.w3.org/TR/2001/REC-SVG-20010904/DTD/svg10.dtd">
<svg version="1.0" xmlns="http://www.w3.org/2000/svg"
 width="512.000000pt" height="512.000000pt" viewBox="0 0 512.000000 512.000000"
 preserveAspectRatio="xMidYMid meet">
<metadata>
Created by potrace 1.14, written by Peter Selinger 2001-2017
</metadata>
<g transform="translate(0.000000,512.000000) scale(0.100000,-0.100000)"
fill="#000000" stroke="none">
<path d="M2310 5113 c-403 -39 -816 -183 -1150 -400 -212 -138 -440 -342 -590
-527 -295 -365 -493 -830 -556 -1306 -23 -181 -15 -575 16 -749 78 -440 261
-844 537 -1186 109 -135 313 -332 453 -436 336 -252 684 -402 1115 -481 141
-26 541 -36 696 -18 315 36 587 116 868 256 330 163 632 407 861 694 303 381
481 801 546 1290 22 174 15 553 -15 726 -96 558 -349 1040 -747 1423 -258 247
-544 431 -869 556 -194 75 -430 132 -637 154 -88 10 -443 13 -528 4z m585
-348 c318 -49 626 -168 891 -344 142 -95 256 -188 252 -205 -3 -15 -819 -863
-831 -865 -4 -1 -31 17 -60 38 -75 56 -199 116 -302 146 -418 121 -859 -34
-1117 -391 -57 -78 -125 -229 -154 -339 -22 -85 -26 -121 -27 -245 0 -157 11
-219 63 -361 84 -231 274 -437 504 -549 284 -138 599 -139 884 -5 97 46 152
80 152 95 0 5 -128 164 -285 355 -157 191 -285 351 -285 356 0 5 441 9 1105 9
l1105 0 0 -34 c0 -71 -32 -275 -61 -396 -133 -543 -479 -1030 -954 -1343 -198
-130 -501 -259 -725 -307 -233 -51 -548 -66 -776 -35 -656 86 -1224 446 -1594
1010 -29 44 -85 148 -125 230 -410 840 -251 1848 397 2520 365 380 851 618
1378 674 125 14 437 6 565 -14z m1467 -882 c91 -128 113 -163 171 -273 122
-230 214 -515 242 -752 l7 -58 -807 0 -807 0 109 113 c470 492 1010 1047 1019
1047 6 0 36 -35 66 -77z"/>
</g>
</svg>
